<?xml version="1.0" standalone="no"?>
<!DOCTYPE svg PUBLIC "-//W3C//DTD SVG 20010904//EN"
 "http://www.w3.org/TR/2001/REC-SVG-20010904/DTD/svg10.dtd">
<svg version="1.0" xmlns="http://www.w3.org/2000/svg"
 width="460.000000pt" height="460.000000pt" viewBox="0 0 460.000000 460.000000"
 preserveAspectRatio="xMidYMid meet">
<metadata>
Created by potrace 1.11, written by Peter Selinger 2001-2013
</metadata>
<g transform="translate(0.000000,460.000000) scale(0.100000,-0.100000)"
fill="#000000" stroke="none">
<path d="M1573 4560 c-1 -11 2 -20 7 -20 5 0 19 -10 31 -22 12 -13 18 -17 14
-9 -5 9 1 8 18 -4 15 -9 30 -14 36 -11 5 3 12 -1 15 -10 3 -8 10 -13 15 -9 5
3 12 1 16 -5 4 -6 11 -8 16 -5 5 4 9 1 9 -5 0 -6 5 -8 10 -5 6 3 16 3 23 -2
26 -17 77 -31 70 -19 -3 6 0 6 8 -1 7 -7 21 -13 31 -13 10 0 18 -5 18 -12 0
-6 3 -8 7 -5 3 4 13 1 21 -6 9 -6 13 -7 10 -2 -4 6 2 11 12 11 14 0 16 -3 8
-13 -8 -10 -7 -12 6 -7 9 3 23 1 31 -6 8 -7 15 -9 15 -4 0 5 7 0 16 -11 8 -11
16 -18 17 -16 1 3 10 0 20 -5 16 -9 17 -12 3 -23 -11 -9 -16 -10 -16 -2 0 6
-3 10 -7 10 -5 -1 -11 0 -15 1 -17 5 -29 8 -49 9 -12 1 -17 5 -13 13 4 6 3 8
-3 5 -6 -4 -32 -1 -59 6 -27 7 -66 12 -86 12 -21 -1 -38 2 -38 6 0 8 -34 4
-50 -6 -6 -3 -10 1 -10 10 0 9 -5 13 -10 10 -6 -4 -8 -11 -5 -16 3 -5 -1 -6
-9 -3 -9 3 -13 11 -9 18 4 6 0 6 -9 -2 -13 -10 -17 -10 -21 0 -4 10 -6 10 -6
1 -1 -7 -6 -13 -12 -13 -5 0 -7 5 -3 12 5 7 3 8 -7 3 -7 -5 -28 -8 -47 -7 -21
2 -31 -1 -27 -8 3 -6 0 -7 -9 -4 -9 3 -13 11 -9 17 3 6 1 7 -5 3 -20 -12 -14
-65 8 -78 11 -7 20 -20 20 -29 0 -21 24 -41 36 -31 4 4 2 -1 -5 -11 -8 -9 -16
-15 -19 -12 -3 2 -11 -3 -19 -13 -8 -9 -11 -11 -8 -4 6 11 3 11 -13 1 -11 -7
-18 -18 -15 -25 2 -6 -1 -15 -6 -19 -6 -3 -9 -11 -6 -16 3 -5 -2 -6 -11 -2
-11 4 -15 3 -10 -5 3 -6 -3 -16 -14 -22 -11 -6 -17 -16 -14 -22 4 -6 3 -9 -2
-5 -5 3 -18 -1 -29 -9 -10 -8 -15 -14 -11 -14 5 0 -3 -9 -17 -20 -22 -17 -25
-25 -17 -44 5 -13 6 -27 2 -31 -4 -4 0 -5 8 -3 10 2 14 -3 12 -15 -2 -10 3
-16 10 -15 7 2 12 -3 10 -11 -2 -7 5 -22 14 -32 16 -18 16 -19 0 -19 -16 0
-16 -1 -1 -16 14 -15 14 -17 -2 -31 -10 -8 -11 -11 -3 -7 12 7 13 5 3 -8 -7
-8 -10 -18 -6 -21 3 -4 -2 -9 -11 -13 -9 -3 -13 -10 -10 -15 3 -5 -2 -12 -10
-15 -9 -3 -13 -10 -10 -15 3 -5 -2 -12 -11 -15 -13 -5 -13 -9 -3 -22 11 -13
11 -14 -2 -7 -12 7 -12 5 1 -11 9 -10 14 -25 11 -33 -3 -9 0 -11 8 -6 9 6 9 2
-1 -16 -7 -13 -12 -25 -11 -26 7 -11 0 -63 -7 -58 -14 8 -5 -34 11 -53 11 -13
11 -14 -2 -7 -11 7 -10 2 4 -19 11 -18 13 -26 5 -21 -11 6 -12 5 -1 -6 14 -15
16 -33 3 -25 -11 7 -9 -13 3 -33 5 -7 5 -16 -1 -20 -14 -9 -9 -71 7 -81 13 -8
18 -21 22 -62 1 -9 6 -14 10 -12 4 3 8 -2 8 -10 0 -9 5 -16 10 -16 17 0 11
-18 -12 -40 -26 -24 -38 -26 -38 -4 0 8 -4 13 -8 10 -5 -3 -15 4 -22 15 -8 10
-21 19 -30 19 -13 0 -13 1 0 10 12 7 8 10 -15 10 -23 0 -27 3 -15 10 12 8 11
10 -7 10 -32 0 -29 -27 6 -61 16 -15 27 -30 24 -33 -3 -3 2 -8 11 -12 9 -3 16
-12 16 -20 0 -8 4 -14 8 -14 5 0 9 -7 9 -15 0 -11 -6 -14 -16 -9 -9 3 -21 7
-28 7 -7 0 -10 4 -7 9 3 4 -4 8 -16 8 -12 0 -19 4 -16 9 4 5 -2 8 -11 6 -10
-2 -24 -4 -32 -4 -10 -1 -7 -7 7 -20 12 -10 22 -24 22 -30 0 -7 5 -9 10 -6 6
3 10 1 10 -5 0 -6 5 -8 10 -5 6 3 10 -1 10 -10 0 -9 5 -13 10 -10 11 7 14 -37
4 -48 -4 -3 -21 5 -40 19 -36 28 -43 29 -62 5 -8 -9 -11 -10 -7 -3 3 6 3 12
-1 12 -7 0 -72 -47 -84 -59 -3 -4 -12 -7 -20 -9 -8 -2 -19 -10 -23 -18 -5 -8
-12 -12 -18 -9 -5 4 -12 -1 -15 -9 -3 -9 -10 -13 -15 -10 -5 3 -9 1 -9 -4 0
-6 -12 -13 -26 -16 -37 -10 -23 -19 31 -20 31 -1 45 3 45 12 0 10 3 10 15 -2
30 -30 13 -86 -27 -86 -10 0 -18 -4 -18 -9 0 -5 -10 -11 -22 -15 -30 -7 -100
-70 -90 -81 4 -4 2 -5 -4 -2 -12 7 -100 -82 -96 -95 1 -5 -6 -8 -15 -8 -15 0
-16 -2 -3 -10 13 -8 13 -10 -1 -10 -9 0 -21 -11 -27 -25 -7 -14 -19 -28 -28
-32 -13 -5 -13 -7 -2 -14 10 -7 9 -9 -4 -9 -10 0 -18 -7 -18 -15 0 -8 -5 -15
-11 -15 -6 0 -8 -7 -5 -16 3 -8 2 -12 -4 -9 -6 3 -10 -1 -10 -9 0 -9 -5 -16
-11 -16 -5 0 -8 -4 -4 -10 3 -5 -3 -18 -13 -28 -10 -10 -18 -28 -17 -39 1 -15
-3 -19 -13 -15 -11 4 -14 0 -10 -16 4 -13 0 -23 -9 -26 -8 -3 -11 -11 -7 -17
3 -6 2 -14 -4 -18 -7 -4 -13 -16 -16 -26 -9 -44 -19 -65 -30 -65 -6 0 -4 -4 4
-10 12 -8 12 -10 -2 -15 -9 -4 -15 -14 -14 -23 2 -9 -4 -23 -13 -30 -9 -8 -10
-11 -3 -7 6 3 12 1 12 -4 0 -6 -4 -11 -9 -11 -4 0 -7 -12 -5 -26 1 -17 -2 -24
-10 -21 -9 4 -12 -7 -11 -35 1 -23 -3 -42 -10 -44 -7 -3 -11 -16 -9 -30 1 -13
-2 -24 -8 -24 -6 0 -4 -7 3 -17 10 -11 10 -14 2 -9 -9 5 -13 1 -14 -11 -1 -23
-5 -50 -14 -88 -4 -16 -8 -47 -8 -67 -1 -21 -5 -38 -10 -38 -5 0 -3 -8 4 -17
9 -11 10 -14 2 -9 -9 5 -12 -1 -9 -23 2 -17 1 -31 -3 -31 -3 0 -6 -49 -6 -110
0 -60 -3 -110 -6 -110 -4 0 -10 -7 -13 -16 -3 -8 -2 -13 3 -10 5 3 11 -1 14
-9 4 -10 1 -12 -11 -8 -15 6 -15 5 -3 -10 7 -9 10 -17 7 -17 -4 0 -2 -9 4 -20
9 -17 8 -19 -7 -13 -17 6 -17 5 -1 -13 13 -15 15 -23 7 -31 -8 -8 -8 -13 0
-17 8 -5 8 -13 1 -27 -8 -13 -7 -19 0 -19 6 0 8 -5 5 -10 -4 -6 -11 -8 -16 -5
-5 3 -6 -1 -3 -9 3 -9 10 -14 15 -11 4 3 7 -7 5 -23 -6 -41 4 -83 18 -75 6 4
5 -1 -2 -10 -8 -9 -10 -22 -6 -29 5 -7 10 -20 12 -28 4 -19 10 -43 12 -50 1
-3 2 -8 1 -12 0 -5 4 -8 10 -8 5 0 7 -6 3 -12 -4 -7 -4 -10 1 -6 4 4 14 3 22
-3 10 -9 13 -7 13 7 0 16 2 17 10 4 14 -21 12 -30 -5 -30 -18 0 -65 -47 -65
-65 0 -11 12 -15 43 -15 50 0 62 -7 46 -27 -6 -7 -8 -13 -4 -13 4 0 2 -7 -5
-15 -11 -13 -10 -14 3 -10 17 7 19 -25 2 -37 -6 -5 -5 -8 3 -8 7 0 10 -5 7
-10 -4 -6 1 -22 10 -37 9 -14 12 -22 5 -18 -9 6 -9 3 -1 -14 7 -11 17 -21 23
-21 6 0 5 -6 -3 -17 -8 -9 -9 -14 -4 -11 6 4 17 -8 25 -25 7 -18 20 -37 29
-43 13 -10 12 -12 -7 -18 -12 -4 -31 -2 -43 4 -15 8 -19 9 -15 1 9 -14 4 -14
-29 -1 -19 7 -24 7 -19 -1 5 -8 1 -8 -13 0 -11 6 -23 8 -26 5 -3 -3 -14 -1
-26 5 -15 9 -22 8 -28 -4 -7 -12 -11 -11 -21 6 -11 17 -11 20 0 13 10 -6 11
-5 1 7 -10 12 -10 18 -1 27 9 9 9 12 0 12 -9 0 -10 5 -4 17 7 12 5 24 -7 42
-11 18 -12 23 -2 17 9 -6 12 -5 9 5 -3 8 -2 21 3 30 4 8 3 22 -3 30 -8 11 -9
11 -4 -3 3 -10 2 -19 -2 -22 -4 -3 -8 4 -9 14 -1 11 2 22 8 25 5 4 9 11 9 16
0 6 -4 8 -8 5 -5 -3 -9 1 -9 9 0 8 4 12 8 9 12 -7 17 20 7 40 -7 13 -6 21 2
26 10 6 9 9 -1 12 -7 2 -13 14 -14 26 -1 11 2 19 6 16 4 -2 10 0 14 6 3 5 1
10 -5 10 -6 0 -8 5 -5 10 3 6 1 10 -4 10 -6 0 -11 5 -11 11 0 5 5 7 12 3 7 -5
8 -3 3 6 -5 8 -9 26 -10 42 -2 24 0 26 13 15 12 -9 11 -5 -2 22 -10 18 -13 30
-8 27 6 -3 12 0 14 7 7 17 -2 38 -13 31 -5 -3 -9 0 -9 5 0 6 7 11 16 11 8 0
12 5 9 10 -4 6 -12 7 -18 4 -8 -5 -8 -3 0 7 15 15 18 33 5 25 -5 -3 -9 1 -9 9
0 8 4 12 8 10 4 -3 5 15 3 40 -3 28 0 45 6 45 6 0 8 5 5 10 -4 6 -10 8 -14 6
-4 -3 -7 34 -6 82 1 48 -2 97 -6 108 -4 13 -3 26 4 33 8 8 8 11 -2 11 -7 0 -9
5 -6 10 3 6 1 10 -6 10 -7 0 -4 6 7 14 16 12 17 17 6 28 -11 11 -12 10 -7 -7
4 -12 4 -15 -2 -8 -4 6 -8 43 -8 82 0 39 -2 71 -5 71 -3 0 -6 9 -7 20 -1 13 2
18 10 13 7 -3 5 2 -3 13 -11 13 -16 38 -15 77 1 31 -3 57 -7 57 -11 0 -6 23 7
32 6 5 5 8 -3 8 -7 0 -11 4 -7 9 3 5 2 12 -2 14 -5 3 -8 47 -8 99 0 51 -4 96
-10 100 -7 5 -7 8 0 8 12 0 12 51 0 70 -12 19 -13 60 -1 67 5 4 6 1 1 -7 -6
-9 -4 -11 4 -6 9 6 8 12 -4 26 -12 14 -13 20 -4 26 8 5 10 3 4 -6 -6 -9 -4
-11 5 -5 10 6 10 10 -3 19 -11 9 -13 16 -5 30 7 12 7 17 1 13 -6 -4 -10 4 -10
18 0 14 4 22 9 19 6 -4 6 1 0 13 -6 11 -7 25 -2 33 5 8 6 19 2 25 -3 5 -7 120
-9 253 -2 250 -8 287 -39 261 -8 -6 -14 -8 -14 -3 0 5 -5 2 -10 -6 -6 -9 -13
-11 -17 -5 -11 14 -146 12 -151 -3 -2 -7 -8 -10 -12 -7 -11 7 -32 -30 -23 -39
3 -3 1 -6 -6 -6 -9 0 -8 -4 3 -15 8 -8 20 -15 26 -15 6 0 10 -10 9 -22 -2 -13
0 -29 4 -35 5 -8 3 -13 -3 -13 -6 0 -8 -5 -5 -11 11 -16 13 -59 4 -59 -5 0 -9
-5 -9 -11 0 -5 6 -7 13 -3 7 5 6 0 -3 -11 -9 -11 -10 -16 -2 -11 7 4 12 1 12
-9 0 -9 -4 -14 -8 -11 -4 2 -7 -11 -7 -29 0 -18 3 -31 8 -28 4 2 7 -3 7 -11 0
-9 -4 -16 -10 -16 -5 0 -10 -5 -10 -11 0 -5 6 -7 13 -3 9 6 9 5 0 -7 -10 -12
-10 -18 0 -29 6 -7 7 -10 1 -7 -7 4 -11 -17 -12 -60 -1 -41 -7 -70 -14 -75
-10 -6 -10 -8 0 -8 15 0 16 -46 2 -55 -8 -5 -8 -11 -1 -19 7 -8 7 -16 1 -22
-5 -5 -10 -54 -11 -107 -2 -54 -6 -100 -11 -103 -5 -3 -4 -12 2 -19 8 -9 8
-15 0 -20 -6 -4 -7 -12 -1 -23 5 -9 5 -26 0 -39 -5 -13 -4 -25 2 -28 5 -4 6
-12 2 -18 -10 -16 -10 -156 0 -150 4 2 7 -3 7 -12 0 -10 -5 -13 -12 -9 -7 5
-8 3 -2 -7 5 -8 10 -25 12 -37 2 -17 -1 -22 -10 -16 -10 6 -10 5 -2 -7 6 -8
12 -48 13 -89 1 -45 7 -78 14 -82 7 -5 8 -8 2 -8 -6 0 -11 -11 -11 -25 0 -14
4 -25 9 -25 4 0 5 -6 0 -12 -11 -18 -13 -39 -3 -33 5 3 9 -9 8 -27 -1 -78 5
-128 16 -128 6 0 6 -4 -2 -9 -17 -11 -17 -21 0 -32 9 -6 10 -9 1 -9 -7 0 -10
-7 -7 -15 4 -8 11 -12 17 -8 6 4 7 1 2 -8 -11 -17 -14 -69 -5 -74 4 -3 7 -23
6 -45 -1 -22 2 -40 6 -40 4 0 8 -5 8 -11 0 -5 -6 -7 -12 -3 -10 6 -9 3 0 -9 8
-9 13 -26 12 -39 -1 -13 -1 -25 0 -28 1 -3 4 -32 5 -65 2 -33 4 -60 5 -60 3 0
10 -43 13 -82 1 -21 6 -43 9 -49 4 -5 3 -16 -3 -24 -5 -8 -9 -19 -9 -25 0 -5
5 -3 10 5 9 14 14 -33 12 -123 0 -15 3 -27 8 -27 6 0 5 -11 0 -26 -13 -33 -12
-43 1 -24 9 12 10 11 6 -7 -3 -13 -2 -25 1 -27 4 -2 7 -42 7 -89 0 -47 3 -83
6 -81 4 2 9 -5 12 -16 3 -11 1 -18 -4 -14 -5 3 -9 1 -9 -4 0 -6 8 -13 17 -16
14 -6 15 -9 4 -15 -9 -6 -5 -9 13 -9 14 0 23 4 21 8 -6 10 24 22 36 15 5 -3 7
-24 5 -45 -2 -22 0 -38 5 -34 5 3 6 -2 3 -10 -5 -14 11 -16 132 -16 l139 0 0
25 c0 14 -4 25 -10 25 -5 0 -3 5 5 10 13 9 13 10 0 10 -13 0 -13 1 0 10 13 9
13 10 0 10 -13 0 -13 1 0 10 13 9 13 10 0 10 -13 0 -13 1 0 10 11 7 11 10 2
10 -7 0 -10 5 -7 10 4 6 10 8 14 6 4 -3 13 -1 21 4 9 5 20 4 29 -3 9 -7 12 -8
8 -1 -6 10 51 18 116 16 11 -1 15 4 10 11 -4 7 1 5 12 -3 21 -17 25 -17 36 2
6 10 13 10 26 2 10 -6 27 -9 38 -6 22 5 74 9 198 13 43 2 81 7 83 11 3 4 11 8
17 8 7 0 6 -4 -3 -10 -12 -8 -11 -10 6 -10 11 0 26 6 33 13 11 9 13 9 7 0 -9
-17 16 -17 33 -1 9 8 11 8 8 2 -5 -9 17 -12 78 -12 47 1 88 -1 91 -4 2 -3 18
-4 34 -2 16 2 32 -1 35 -6 3 -6 20 -10 36 -10 l31 0 -34 -33 c-18 -19 -36 -32
-40 -30 -5 2 -8 -1 -8 -6 0 -6 -6 -11 -13 -11 -19 0 -49 -35 -40 -45 5 -4 2
-5 -5 -1 -11 7 -42 -14 -42 -28 0 -4 205 -6 456 -6 423 1 455 2 442 17 -8 10
-8 14 -1 10 7 -4 18 2 28 15 8 13 18 22 20 21 12 -7 26 -2 20 7 -3 5 3 10 14
10 11 0 23 5 27 12 5 7 2 9 -7 4 -8 -4 -5 0 5 8 11 9 25 16 31 16 6 0 17 9 25
19 7 11 17 18 22 15 4 -3 8 2 8 10 0 9 5 16 11 16 6 0 7 -6 2 -12 -4 -7 16 11
44 39 28 29 57 53 64 53 8 0 19 10 24 22 6 13 16 22 23 21 7 -2 12 2 12 7 0
15 37 49 45 42 4 -4 5 -2 4 3 -2 6 2 20 9 31 6 12 8 24 5 28 -3 3 -1 6 6 6 14
0 13 58 -2 78 -7 9 -5 11 8 6 12 -5 16 -4 11 4 -3 6 -2 13 4 17 5 3 11 1 11
-4 1 -6 2 -16 3 -21 0 -6 8 -15 16 -21 12 -9 12 -10 -4 -5 -15 5 -17 4 -7 -8
6 -8 14 -24 16 -37 3 -12 8 -25 12 -28 5 -3 10 -19 12 -36 1 -16 6 -32 10 -35
3 -3 6 -11 7 -17 3 -40 5 -44 17 -37 8 5 8 2 -2 -9 -10 -13 -10 -17 -1 -17 7
0 10 -8 7 -20 -3 -11 -2 -20 2 -20 4 0 14 -16 23 -35 9 -20 11 -32 4 -29 -6 3
-3 -1 6 -9 10 -8 15 -17 11 -20 -3 -4 -1 -7 5 -7 7 0 12 -7 12 -15 0 -8 6 -15
13 -15 8 0 7 -4 -3 -10 -8 -5 -10 -10 -4 -10 7 0 19 -12 29 -26 9 -15 11 -23
4 -19 -8 5 -10 4 -5 -4 6 -9 141 -11 537 -11 332 1 527 5 524 11 -6 8 12 12
57 12 10 0 15 3 13 7 -6 10 54 22 68 13 6 -3 7 -1 3 5 -5 8 0 12 13 12 11 0
23 5 26 10 3 6 12 10 18 10 7 0 6 -4 -3 -10 -19 -12 -6 -13 18 -1 32 16 111
41 144 45 9 1 24 9 34 17 10 8 15 9 11 3 -4 -8 3 -8 28 0 18 6 31 15 27 21 -3
5 3 3 13 -5 10 -8 16 -10 12 -3 -7 12 -2 13 57 14 21 1 25 3 15 10 -10 6 -6 9
14 9 l27 0 0 1795 c0 1788 0 1795 -20 1795 -11 0 -20 -5 -20 -11 0 -5 -4 -8
-8 -5 -5 3 -21 -1 -36 -9 -14 -8 -24 -10 -21 -5 3 5 -7 3 -21 -5 -15 -8 -31
-12 -36 -9 -4 3 -8 0 -8 -5 0 -6 -9 -11 -19 -11 -11 0 -23 -4 -26 -10 -3 -5
-15 -10 -26 -10 -10 0 -19 -4 -19 -10 0 -5 -8 -10 -18 -10 -10 0 -24 -6 -31
-12 -11 -11 -12 -10 -6 1 5 9 -4 6 -22 -7 -17 -12 -36 -22 -42 -22 -6 0 -11
-4 -11 -10 0 -5 -7 -10 -15 -10 -8 0 -15 -5 -15 -11 0 -5 -4 -8 -9 -5 -5 3
-12 -1 -15 -10 -3 -9 -13 -14 -20 -11 -8 3 -17 -1 -20 -9 -3 -8 -15 -14 -26
-14 -11 0 -20 -6 -20 -12 0 -9 -4 -8 -10 2 -5 8 -10 10 -10 4 0 -11 -19 -20
-59 -29 -8 -2 -17 -9 -21 -16 -5 -6 -17 -9 -29 -6 -12 3 -23 1 -26 -3 -8 -13
-66 -40 -87 -40 -10 0 -18 -4 -18 -10 0 -5 -10 -10 -23 -10 -13 0 -28 -5 -34
-11 -8 -8 -13 -8 -17 0 -5 7 -15 6 -32 -5 -13 -9 -24 -12 -24 -8 0 5 -4 3 -8
-3 -4 -7 -17 -14 -27 -16 -11 -1 -25 -6 -31 -9 -6 -4 -27 -8 -47 -10 -20 -1
-33 -6 -31 -10 3 -4 0 -8 -6 -8 -7 0 -24 -9 -39 -19 -15 -11 -34 -21 -41 -23
-8 -2 -23 -11 -34 -20 -11 -10 -27 -18 -36 -18 -9 0 -21 -5 -28 -12 -7 -7 -12
-8 -12 -4 0 5 -7 3 -15 -4 -12 -10 -15 -9 -15 4 0 10 -4 14 -10 11 -5 -3 -10
1 -10 9 0 9 -4 16 -10 16 -9 0 -15 -37 -11 -69 2 -8 -2 -10 -11 -5 -10 6 -10
4 1 -9 10 -13 10 -17 1 -17 -10 0 -10 -3 0 -15 10 -12 10 -18 0 -30 -10 -12
-10 -15 0 -15 9 0 10 -3 1 -13 -6 -8 -8 -17 -4 -21 10 -9 11 -66 2 -60 -4 2
-11 0 -14 -6 -4 -6 -3 -10 2 -9 19 3 23 -2 13 -20 -7 -13 -7 -22 0 -26 5 -3
10 -12 10 -18 0 -8 -3 -7 -9 2 -7 10 -9 7 -8 -12 1 -14 6 -23 11 -19 5 3 6 -2
3 -11 -16 -40 -19 -52 -9 -38 6 9 9 -4 9 -42 0 -37 -4 -54 -11 -50 -6 3 -5 0
2 -8 15 -16 16 -33 0 -23 -7 5 -8 3 -2 -7 14 -23 15 -52 2 -61 -8 -4 -8 -8 -2
-8 12 0 12 7 14 -133 1 -78 5 -105 13 -101 8 5 7 2 0 -7 -14 -14 -17 -61 -6
-73 10 -10 13 -37 3 -31 -5 3 -7 -3 -5 -12 2 -10 4 -18 5 -18 1 0 3 -8 5 -18
2 -9 -1 -15 -6 -11 -5 3 -9 0 -9 -5 0 -6 5 -11 11 -11 8 0 7 -6 -2 -17 -8 -9
-9 -14 -3 -10 7 4 12 -2 12 -18 0 -16 -5 -22 -12 -18 -6 4 -5 0 2 -9 8 -10 13
-45 13 -92 0 -55 4 -74 12 -70 8 5 8 3 0 -6 -9 -10 -10 -17 -2 -27 9 -9 8 -17
-1 -28 -9 -10 -9 -15 -1 -15 6 0 11 -5 11 -11 0 -5 -5 -7 -12 -3 -7 5 -8 3 -2
-7 5 -8 10 -32 11 -54 4 -60 9 -88 18 -108 6 -15 10 -16 16 -5 7 10 9 11 9 0
0 -7 5 -10 10 -7 6 3 13 -1 16 -9 3 -9 14 -16 23 -16 14 -1 13 -2 -2 -11 -10
-6 -21 -8 -24 -5 -3 3 -14 1 -24 -5 -12 -6 -19 -6 -19 0 0 12 -35 24 -77 25
-20 1 -28 -3 -23 -9 5 -6 -4 -10 -26 -10 -19 0 -34 5 -34 10 0 6 -5 3 -10 -5
-6 -10 -10 -11 -10 -2 0 6 -9 12 -20 12 -11 0 -20 5 -20 11 0 5 -4 7 -10 4 -5
-3 -10 -2 -10 2 0 5 -15 8 -32 8 -18 -1 -38 5 -44 13 -9 12 -12 13 -19 2 -6
-9 -4 -11 5 -5 9 5 11 4 6 -4 -6 -9 -11 -9 -23 1 -17 14 -46 20 -38 8 3 -4 -2
-10 -10 -14 -8 -3 -17 -1 -20 4 -4 6 -11 10 -16 10 -6 0 -7 -5 -3 -12 4 -7 3
-8 -5 -4 -7 5 -20 -3 -32 -18 -11 -15 -25 -24 -30 -20 -5 3 -8 1 -7 -4 4 -14
-43 -53 -55 -45 -6 3 -7 1 -3 -5 4 -7 3 -12 -2 -12 -16 0 -72 -62 -65 -73 3
-6 1 -7 -6 -3 -6 4 -25 1 -41 -8 -19 -9 -28 -10 -23 -3 5 8 2 8 -9 0 -8 -7
-18 -10 -21 -6 -4 3 -7 1 -7 -5 0 -7 -3 -11 -7 -11 -5 1 -10 0 -13 -1 -20 -7
-40 -7 -40 2 0 7 -5 7 -12 1 -7 -5 -40 -10 -73 -12 -33 -1 -63 -8 -67 -14 -6
-9 -8 -9 -8 1 0 6 -5 12 -11 12 -5 0 -7 -6 -3 -13 6 -9 4 -9 -8 1 -13 10 -17
10 -20 0 -4 -10 -8 -11 -20 -1 -8 7 -18 10 -22 6 -9 -9 -28 -12 -98 -14 -32
-1 -58 -6 -58 -10 0 -4 -8 -6 -17 -4 -10 1 -29 -4 -42 -12 -16 -10 -21 -11
-16 -2 6 9 4 11 -7 6 -9 -3 -24 1 -35 9 -10 9 -11 12 -3 8 12 -6 11 -3 -2 12
-17 19 -18 22 -18 50 0 8 -4 13 -9 10 -5 -3 -7 8 -6 24 1 17 -2 28 -9 27 -6
-1 -10 4 -8 11 1 6 -2 12 -7 12 -5 0 -12 7 -15 16 -3 8 -2 12 3 9 5 -3 12 -1
16 5 4 6 11 8 16 5 5 -4 9 3 9 14 0 11 5 23 12 27 7 5 8 3 3 -6 -5 -8 -4 -11
3 -7 14 9 8 43 -8 39 -6 -1 -9 2 -5 7 3 6 -20 36 -52 67 -32 31 -57 63 -55 71
2 10 -1 12 -9 7 -8 -4 -10 -3 -5 5 4 6 12 9 17 6 5 -4 9 -1 9 6 0 8 4 8 15 -1
13 -11 14 -10 9 4 -5 13 -2 15 12 9 17 -6 18 -5 4 13 -8 10 -11 16 -6 12 13
-11 48 12 42 27 -5 14 11 15 32 2 6 -5 12 -4 12 2 0 6 6 8 13 5 10 -3 14 5 15
28 1 24 -6 39 -25 56 -14 12 -21 22 -15 22 7 0 7 8 -1 24 -7 13 -16 22 -21 19
-5 -4 -6 -1 -3 4 8 13 -16 76 -25 67 -4 -3 -9 3 -12 14 -4 11 -21 25 -37 31
-27 9 -32 8 -36 -9 -3 -11 -9 -17 -14 -14 -5 3 -9 0 -9 -5 0 -6 -8 -11 -17
-11 -15 0 -16 -2 -3 -10 10 -6 11 -10 3 -10 -7 0 -22 -8 -32 -18 -48 -43 -52
-45 -64 -32 -9 10 -9 11 3 5 11 -6 10 -3 -3 12 -9 11 -14 23 -10 27 4 4 1 11
-7 16 -12 8 -10 10 7 10 18 0 22 5 21 25 -2 15 -7 24 -14 21 -8 -3 -11 4 -10
19 2 18 -1 22 -13 17 -13 -5 -14 -4 -1 10 12 12 20 13 35 5 23 -12 56 -18 102
-19 22 0 30 -4 26 -12 -4 -6 1 -5 10 3 14 11 18 11 23 -2 4 -11 12 -13 33 -7
16 4 36 3 47 -3 17 -10 18 -9 5 7 -13 16 -12 16 12 5 21 -10 30 -9 44 2 9 8
14 9 10 2 -5 -8 -1 -11 12 -10 11 0 17 5 15 9 -8 13 11 9 25 -4 11 -10 13 -10
7 0 -5 9 5 12 39 12 25 0 44 4 41 8 -3 5 8 8 24 7 17 -1 30 2 30 7 0 5 5 6 10
3 6 -3 10 -1 10 4 0 6 3 10 8 10 21 -4 43 2 38 10 -3 5 0 9 7 8 6 0 23 1 37 2
20 1 22 3 10 11 -12 8 -9 10 13 10 15 0 27 5 27 10 0 6 3 9 8 9 19 -3 33 2 27
11 -3 6 1 10 9 10 9 0 16 5 16 11 0 5 5 7 10 4 8 -5 14 13 12 36 -1 9 61 5 76
-4 7 -5 12 -4 12 3 0 6 5 8 13 3 16 -10 67 -11 61 -1 -5 7 22 12 29 6 3 -3 22
12 58 45 10 9 19 14 19 10 0 -4 7 2 16 13 8 10 12 12 8 4 -4 -8 3 -5 15 8 12
12 19 28 15 35 -4 6 -4 9 0 5 15 -13 94 91 80 105 -4 3 5 9 19 13 15 3 25 11
24 16 -1 6 4 13 11 15 6 3 12 0 12 -7 0 -6 5 -8 10 -5 6 3 10 1 10 -4 0 -6 10
-10 23 -8 13 1 21 -3 19 -10 -1 -7 2 -13 8 -13 5 0 10 5 10 11 0 8 4 8 13 1
18 -15 43 7 42 38 0 14 -5 28 -11 32 -6 4 -10 26 -9 48 1 22 -1 40 -4 40 -4 0
-8 14 -9 31 -2 22 1 28 10 23 10 -6 10 -5 1 7 -16 20 -17 30 -1 41 10 7 10 11
1 15 -7 2 -13 9 -13 14 0 6 3 8 8 5 4 -2 8 10 9 27 5 84 7 96 16 90 5 -3 4 5
-3 17 -7 13 -8 20 -2 16 7 -4 10 13 9 48 -1 30 1 52 4 50 4 -2 10 3 13 12 9
23 8 26 -6 18 -10 -6 -10 -4 -2 7 16 20 15 169 -1 195 -9 13 -10 26 -4 37 8
13 6 15 -8 10 -14 -5 -15 -3 -6 7 9 10 15 9 32 -2 12 -8 19 -17 16 -19 -2 -3
5 -6 16 -6 11 -1 29 -11 39 -22 9 -12 27 -21 39 -21 12 0 20 -4 17 -9 -3 -4
30 -9 74 -10 51 -1 80 2 80 8 0 6 5 11 11 11 5 0 7 -6 3 -12 -6 -10 -4 -10 7
-2 8 5 30 11 49 13 46 4 50 7 50 42 0 20 -4 28 -12 23 -8 -5 -9 0 -6 14 4 15
2 22 -9 22 -8 0 -12 4 -8 9 3 5 -2 16 -10 24 -8 9 -15 23 -15 31 0 9 -4 16
-10 16 -5 0 -10 10 -10 23 0 18 -2 19 -10 7 -8 -12 -10 -11 -10 8 0 12 -4 22
-10 22 -5 0 -10 7 -10 16 0 8 -4 12 -10 9 -5 -3 -10 1 -10 10 0 9 -18 34 -40
56 -22 22 -40 42 -40 44 0 10 -40 45 -51 45 -5 0 -7 5 -4 10 3 6 -1 10 -9 10
-9 0 -16 7 -16 17 0 9 -3 14 -6 10 -3 -3 -18 6 -32 20 -14 14 -38 30 -53 35
-20 7 -29 16 -28 31 0 21 1 21 9 2 6 -13 9 -15 9 -5 1 12 20 15 109 15 105 0
107 0 110 24 2 15 0 21 -7 17 -6 -4 -11 -3 -11 2 0 9 -69 38 -83 34 -5 -1 -6
2 -2 8 6 10 -3 13 -38 13 -13 0 -15 3 -6 13 8 10 6 12 -10 9 -12 -2 -21 1 -21
6 0 6 -4 7 -10 4 -5 -3 -10 -1 -10 4 0 6 -9 11 -21 11 -11 0 -18 4 -15 9 3 4
-6 7 -19 5 -14 -1 -23 2 -19 7 3 5 -2 9 -10 9 -9 0 -16 5 -16 12 0 9 -3 9 -11
1 -9 -9 -15 -8 -26 3 -8 8 -23 14 -34 14 -11 0 -18 4 -15 9 3 5 -8 7 -24 6
-17 -1 -28 2 -27 9 1 6 -7 11 -19 11 -11 0 -28 6 -36 13 -9 7 -23 10 -32 6 -9
-3 -16 -1 -16 4 0 6 -9 9 -20 7 -11 -2 -20 1 -20 7 0 6 -3 9 -6 5 -3 -3 -17
-2 -30 3 -17 7 -24 6 -24 -3 0 -9 -2 -9 -8 0 -9 14 -39 21 -95 22 -21 1 -36 5
-33 9 2 4 -4 8 -14 8 -10 0 -16 -4 -14 -8 3 -4 0 -8 -5 -8 -6 0 -11 4 -11 8 0
11 -192 9 -209 -2 -10 -6 -12 -6 -7 2 4 7 3 12 -3 12 -5 0 -13 -4 -16 -10 -3
-5 -12 -10 -18 -10 -7 0 -6 4 3 10 20 13 10 12 -28 -1 -19 -7 -29 -16 -26 -22
4 -8 2 -7 -7 1 -16 14 -33 16 -24 2 3 -5 4 -10 2 -10 -7 0 -48 38 -50 47 -1 4
-5 7 -9 5 -5 -1 -8 5 -8 15 0 9 -3 13 -7 10 -3 -4 -17 0 -31 9 -13 9 -33 13
-44 11 -16 -5 -17 -3 -7 9 10 12 9 13 -3 9 -9 -4 -23 1 -32 10 -12 12 -16 13
-16 3 0 -10 -2 -10 -9 1 -5 7 -14 10 -20 7 -6 -4 -11 -2 -11 3 0 6 -9 11 -19
11 -11 0 -21 5 -23 11 -2 7 -17 13 -33 14 -19 1 -29 7 -27 15 2 11 -1 10 -14
-1 -12 -9 -15 -9 -10 -1 4 7 2 12 -6 13 -7 0 -20 2 -28 4 -8 3 -24 6 -35 7
-11 2 -23 6 -26 11 -5 7 -32 15 -74 21 -11 2 -29 6 -40 9 -16 5 -21 2 -22 -13z
m641 -1051 c-2 -4 -12 -5 -20 -2 -13 5 -13 7 -2 14 12 8 4 13 -15 10 -5 -1 -5
3 -2 9 5 8 13 6 26 -6 10 -9 16 -20 13 -25z m-271 1 c7 0 6 -4 -3 -10 -13 -8
-12 -10 4 -10 12 0 16 -5 13 -14 -3 -8 -1 -17 6 -20 9 -3 9 -5 0 -5 -15 -1
-44 39 -37 51 3 4 1 8 -5 8 -6 0 -7 8 -3 18 6 16 7 16 10 0 2 -10 9 -18 15
-18z m-1668 -829 c3 -5 2 -12 -3 -15 -5 -3 -9 1 -9 9 0 17 3 19 12 6z m15 -25
c0 -2 -8 -10 -17 -17 -16 -13 -17 -12 -4 4 13 16 21 21 21 13z m3057 -151 c0
-8 -4 -15 -9 -15 -10 0 -11 14 -1 23 9 10 10 9 10 -8z m-2743 -660 c3 -8 1
-15 -4 -15 -6 0 -10 7 -10 15 0 8 2 15 4 15 2 0 6 -7 10 -15z m-22 -82 c-3
-16 -7 -22 -10 -15 -4 13 4 42 11 42 2 0 2 -12 -1 -27z m1128 -173 c0 -11 -4
-20 -9 -20 -7 0 -8 17 -2 38 4 10 11 -2 11 -18z m770 -272 c0 6 5 12 11 12 5
0 8 -4 5 -9 -3 -5 2 -12 11 -15 15 -6 15 -8 3 -16 -12 -8 -11 -10 5 -10 16 0
17 -2 5 -10 -12 -8 -12 -10 3 -16 15 -5 15 -9 5 -22 -10 -12 -10 -14 0 -8 11
7 16 -10 15 -51 -1 -7 3 -10 8 -7 5 3 9 0 9 -5 0 -6 -5 -11 -12 -11 -6 0 -23
-10 -36 -22 -14 -13 -22 -17 -18 -10 4 6 2 12 -3 12 -6 0 -11 -4 -11 -10 0 -5
-5 -10 -11 -10 -6 0 -25 -10 -42 -22 -17 -12 -28 -17 -24 -12 4 7 -8 12 -31
13 -20 2 -45 3 -54 4 -9 1 -14 5 -11 10 3 5 -1 8 -8 6 -33 -4 -50 1 -43 14 6
9 4 9 -8 -1 -11 -9 -18 -10 -23 -2 -3 5 -17 10 -31 10 -18 0 -23 4 -18 13 5 7
0 6 -11 -3 -11 -9 -16 -10 -11 -2 5 9 -2 12 -28 12 -19 0 -38 5 -41 10 -3 6
-22 10 -41 10 -19 0 -34 5 -34 10 0 6 5 10 11 10 5 0 8 4 5 8 -2 4 11 12 29
18 25 8 32 8 28 0 -3 -6 0 -5 8 2 7 6 23 12 36 12 13 0 23 5 23 10 0 6 14 10
31 10 16 0 28 4 25 8 -2 4 5 8 17 9 48 2 77 8 77 15 0 4 13 8 29 8 17 0 32 4
35 8 3 5 20 10 38 11 56 4 58 4 58 15 0 6 5 4 10 -4 6 -10 10 -11 10 -2z
m-1939 -57 c-7 -5 -9 -11 -4 -14 9 -6 9 -95 0 -104 -3 -2 -7 12 -9 31 -2 20 0
36 4 36 4 0 3 11 -2 24 -9 25 -5 36 14 36 6 0 5 -4 -3 -9z m1469 -59 c0 -5 -7
-9 -15 -9 -8 0 -12 4 -9 9 3 4 9 8 15 8 5 0 9 -4 9 -8z m-1464 -87 c-3 -23
-12 -26 -13 -5 -1 11 2 20 7 20 4 0 7 -7 6 -15z m829 -184 c3 -5 0 -13 -6 -17
-7 -4 -9 -3 -5 4 3 5 0 13 -6 15 -9 4 -10 6 -1 6 6 1 14 -3 18 -8z m855 -91
c0 -3 9 -6 19 -6 11 0 18 3 16 6 -2 4 20 7 50 7 30 0 53 -3 50 -5 -8 -8 53
-32 81 -32 12 0 26 -5 30 -11 4 -8 9 -7 15 2 5 8 9 9 9 4 0 -6 9 -11 20 -12
11 -1 18 2 15 8 -4 5 1 9 9 9 9 0 16 5 16 10 0 6 7 10 16 10 8 0 12 -4 9 -10
-3 -5 -1 -10 4 -10 6 0 11 4 11 8 0 4 11 9 26 10 14 1 23 -2 19 -8 -3 -6 -1
-10 6 -10 7 0 10 -3 7 -6 -9 -8 25 -42 35 -36 5 2 4 -5 -2 -15 -6 -11 -8 -23
-5 -25 10 -10 13 -48 3 -43 -5 4 -6 12 -2 18 4 7 0 6 -10 -2 -13 -10 -17 -10
-17 -1 0 7 -7 10 -15 6 -8 -3 -19 2 -24 12 -6 9 -11 12 -11 6 0 -7 -7 -14 -15
-18 -8 -3 -14 -2 -14 2 3 18 -3 22 -20 12 -14 -7 -22 -7 -27 1 -4 8 -9 7 -15
-2 -6 -10 -9 -11 -9 -1 0 7 -15 12 -40 12 -23 0 -40 5 -40 11 0 8 -5 8 -15 -1
-10 -9 -15 -9 -15 -1 0 6 -9 11 -21 11 -11 0 -17 5 -14 10 3 6 -5 10 -19 10
-14 0 -28 5 -31 10 -4 6 -11 8 -16 5 -5 -4 -9 1 -9 9 0 9 -5 16 -11 16 -5 0
-7 -4 -4 -10 9 -15 -4 -12 -21 5 -8 8 -22 11 -31 8 -12 -5 -14 -3 -8 7 6 10 4
12 -7 7 -9 -3 -23 0 -32 6 -14 10 -11 12 19 12 19 0 35 -2 35 -5z m-885 -420
c3 -5 1 -10 -4 -10 -6 0 -11 5 -11 10 0 6 2 10 4 10 3 0 8 -4 11 -10z m550 0
c3 -5 1 -10 -4 -10 -6 0 -11 5 -11 10 0 6 2 10 4 10 3 0 8 -4 11 -10z m-135
-110 c8 -5 11 -10 5 -10 -5 0 -17 5 -25 10 -8 5 -10 10 -5 10 6 0 17 -5 25
-10z m-20 -14 c0 -3 -4 -8 -10 -11 -5 -3 -10 -1 -10 4 0 6 5 11 10 11 6 0 10
-2 10 -4z m-26 -21 c3 -8 1 -15 -4 -15 -6 0 -10 7 -10 15 0 8 2 15 4 15 2 0 6
-7 10 -15z"/>
<path d="M2495 2460 c-3 -6 1 -7 9 -4 18 7 21 14 7 14 -6 0 -13 -4 -16 -10z"/>
<path d="M436 1181 c-4 -5 -2 -12 3 -15 5 -4 12 -2 15 3 4 5 2 12 -3 15 -5 4
-12 2 -15 -3z"/>
</g>
</svg>
